<svg xmlns="http://www.w3.org/2000/svg">
<defs>
<font id="VampireWars" horiz-adv-x="1150" >
  <font-face 
    font-family="Vampire Wars"
    font-weight="400"
    font-stretch="normal"
    units-per-em="2048"
    panose-1="2 0 5 0 0 0 0 0 0 0"
    ascent="1638"
    descent="-410"
    x-height="1400"
    cap-height="1400"
    bbox="-290 -400 9731 2033"
    underline-thickness="150"
    underline-position="-142"
    unicode-range="U+001D-U+2212"
  />
<missing-glyph horiz-adv-x="9800" 
d="M208 1432l204 -542l203 542h271l-474 -1220l-449 1154v-2l-68 68h313zM9256 822c-226 0 -339 102.667 -339 308c0 201.333 113 302 339 302h407l-271 -271h-136c-44.667 0 -67 -10.333 -67 -31c0 -24.667 22.333 -37 67 -37h136c226 0 339 -100.667 339 -302
c0 -205.333 -113 -308 -339 -308h-407l271 271h136c45.333 0 68 12.333 68 37c0 20.667 -22.667 31 -68 31h-136zM7826 483l-23 68h-319l103 271h125l-90 271l-239 -610l-364 -271l449 1173l-47 47h337l278 -778v710l-68 68h542c226 0 339 -113 339 -339
c0 -180.667 -45 -282.667 -135 -306l339 -575l-678 571l-2 242h137c45.333 0 68 22.667 68 68s-22.667 68 -68 68h-203v-678h-481zM6176 1432l204 -542l203 610l204 -610l203 542h271l-339 -949h-271l-68 190l-68 -190h-271l-317 888l-61 61h310zM5527 1432v-271h-339v-136
h407l-407 -203v-68h339v-271h-611v881l-67 68h678zM5052 212l-678 571l-1 242h137c44.666 0 67 22.667 67 68s-22.334 68 -67 68h-204v-678h-271v881l-68 68h543c226 0 339 -113 339 -339c0 -180.667 -45.334 -282.667 -136 -306zM3967 1432v-949h-271v881l-68 68h339z
M3289 1432c226 0 339 -113 339 -339s-113 -339 -339 -339h-136v271h136c45.333 0 68 22.667 68 68s-22.667 68 -68 68h-203v-678h-272v881l-68 68h543zM1451 483l-22 68h-320l104 271h125l-90 271l-239 -610l-365 -271l450 1173l-47 47h336l278 -778v710l-67 68h407
l203 -474l203 474h339v-949h-271v452l-271 -588l-271 586v-450h-482z" />
    <glyph glyph-name=".notdef" horiz-adv-x="9800" 
d="M208 1432l204 -542l203 542h271l-474 -1220l-449 1154v-2l-68 68h313zM9256 822c-226 0 -339 102.667 -339 308c0 201.333 113 302 339 302h407l-271 -271h-136c-44.667 0 -67 -10.333 -67 -31c0 -24.667 22.333 -37 67 -37h136c226 0 339 -100.667 339 -302
c0 -205.333 -113 -308 -339 -308h-407l271 271h136c45.333 0 68 12.333 68 37c0 20.667 -22.667 31 -68 31h-136zM7826 483l-23 68h-319l103 271h125l-90 271l-239 -610l-364 -271l449 1173l-47 47h337l278 -778v710l-68 68h542c226 0 339 -113 339 -339
c0 -180.667 -45 -282.667 -135 -306l339 -575l-678 571l-2 242h137c45.333 0 68 22.667 68 68s-22.667 68 -68 68h-203v-678h-481zM6176 1432l204 -542l203 610l204 -610l203 542h271l-339 -949h-271l-68 190l-68 -190h-271l-317 888l-61 61h310zM5527 1432v-271h-339v-136
h407l-407 -203v-68h339v-271h-611v881l-67 68h678zM5052 212l-678 571l-1 242h137c44.666 0 67 22.667 67 68s-22.334 68 -67 68h-204v-678h-271v881l-68 68h543c226 0 339 -113 339 -339c0 -180.667 -45.334 -282.667 -136 -306zM3967 1432v-949h-271v881l-68 68h339z
M3289 1432c226 0 339 -113 339 -339s-113 -339 -339 -339h-136v271h136c45.333 0 68 22.667 68 68s-22.667 68 -68 68h-203v-678h-272v881l-68 68h543zM1451 483l-22 68h-320l104 271h125l-90 271l-239 -610l-365 -271l450 1173l-47 47h336l278 -778v710l-67 68h407
l203 -474l203 474h339v-949h-271v452l-271 -588l-271 586v-450h-482z" />
    <glyph glyph-name="uni0000" horiz-adv-x="0" 
 />
    <glyph glyph-name="uni0000" horiz-adv-x="0" 
 />
    <glyph glyph-name="space" unicode=" " horiz-adv-x="800" 
 />
    <glyph glyph-name="space" unicode="&#xa0;" horiz-adv-x="800" 
 />
    <glyph glyph-name="exclam" unicode="!" horiz-adv-x="800" 
d="M201 500l-50 900h500l-50 -900h-400zM201 0v400h400v-400h-400z" />
    <glyph glyph-name="quotedbl" unicode="&#x22;" horiz-adv-x="922" 
d="M412 1400l-50 -600h-300l-50 600h400zM912 1400l-50 -600h-300l-50 600h400z" />
    <glyph glyph-name="numbersign" unicode="#" horiz-adv-x="1451" 
d="M239 600v200h-150l-50 400h200v200h400v-200h200v200h400v-200h150l50 -400h-200v-200h150l50 -400h-200v-200h-400v200h-200v-200h-400v200h-150l-50 400h200zM639 800v-200h200v200h-200z" />
    <glyph glyph-name="dollar" unicode="$" horiz-adv-x="1186" 
d="M400 1395v205.001h400v-200h300l-400 -400h-200c-66.667 0 -100 -15.333 -100 -46c0 -36 33.333 -54 100 -54h200c333.333 0 500 -148.667 500 -446c0 -270.667 -133.333 -420.334 -400 -449.001v-205h-400v200h-300l400 400h200c66.667 0 100 18 100 54
c0 30.667 -33.333 46 -100 46h-200c-333.333 0 -500 151.333 -500 454c-0 266 133.333 413 400 441z" />
    <glyph glyph-name="percent" unicode="%" horiz-adv-x="1355" 
d="M1336 1400l-849 -1400h-451l853 1400h447zM436 900h-400v400h400v-400zM1336 100h-400v400h400v-400z" />
    <glyph glyph-name="ampersand" unicode="&#x26;" horiz-adv-x="1375" 
d="M781 400c33.333 66.667 50 116.667 50 150s-33.333 50 -100 50h-250c-66.667 0 -100 -33.333 -100 -100s33.333 -100 100 -100h300zM581 900h50c66.667 0 100 25 100 75s-33.333 75 -100 75h-50c-66.667 0 -100 -25 -100 -75s33.333 -75 100 -75zM618 0
l-137 -0.000976562c-333.333 0 -500 166.667 -500 500c0 133.333 66.667 233.333 200 300c-54.667 72.667 -82 145.334 -82 218.001c0 60.667 19 121.334 57 182.001c76 122 200.667 188 374 198v2h152v-2c173.333 -10 298 -76 374 -198c38 -60.667 57 -121.334 57 -182.001
c0 -72.667 -27.333 -145.334 -82 -218.001c133.333 -66.667 200 -166.667 200 -300c0 -35.333 -2 -68.666 -6 -99.999h256l-200 -400h-214l-50 -127l73 -73h-552z" />
    <glyph glyph-name="quotesingle" unicode="'" horiz-adv-x="423" 
d="M412 1400l-50 -600h-300l-50 600h400z" />
    <glyph glyph-name="parenleft" unicode="(" horiz-adv-x="811" 
d="M71 900c0 466.667 233.333 700 700 700v-400c-200 0 -300 -100 -300 -300v-400c0 -200 100 -300 300 -300v-400c-466.667 0 -700 233.333 -700 700v400z" />
    <glyph glyph-name="parenright" unicode=")" horiz-adv-x="779" 
d="M732 500c0 -466.667 -233.333 -700 -700 -700v400c200 0 300 100 300 300v400c0 200 -100 300 -300 300v400c466.667 0 700 -233.333 700 -700v-400z" />
    <glyph glyph-name="asterisk" unicode="*" horiz-adv-x="919" 
d="M562 1143l181 183l142 -141l-183 -185h260v-200h-260l183 -185l-142 -141l-181 183v-257h-200v257l-181 -183l-142 141l183 185h-260v200h260l-183 185l142 141l181 -183v257h200v-257z" />
    <glyph glyph-name="plus" unicode="+" horiz-adv-x="947" 
d="M669 900h300v-400h-300v-300h-400v300h-300v400h300v300h400v-300z" />
    <glyph glyph-name="comma" unicode="," horiz-adv-x="600" 
d="M500 200l-600 -600l200 600h400z" />
    <glyph glyph-name="hyphen" unicode="-" horiz-adv-x="737" 
d="M764 900v-400h-800v400h800z" />
    <glyph glyph-name="hyphen" unicode="&#xad;" horiz-adv-x="737" 
d="M764 900v-400h-800v400h800z" />
    <glyph glyph-name="period" unicode="." horiz-adv-x="600" 
d="M500 0h-400v400h400v-400z" />
    <glyph glyph-name="slash" unicode="/" horiz-adv-x="978" 
d="M1161 1600l-897 -1800h-418l909 1800h406z" />
    <glyph glyph-name="zero" unicode="0" horiz-adv-x="1306" 
d="M673 0c-193.333 0 -358.333 68.333 -495 205s-205 301.667 -205 495s68.333 358.333 205 495s301.667 205 495 205s358.333 -68.333 495 -205s205 -301.667 205 -495s-68.333 -358.333 -205 -495s-301.667 -205 -495 -205zM885 488c58.667 58.667 88 129.334 88 212.001
s-29.333 153.334 -88 212.001s-129.334 88 -212.001 88s-153.334 -29.333 -212.001 -88s-88 -129.334 -88 -212.001s29.333 -153.334 88 -212.001s129.334 -88 212.001 -88s153.334 29.333 212.001 88z" />
    <glyph glyph-name="one" unicode="1" horiz-adv-x="700" 
d="M600 1500v-1500h-400v1000h-100z" />
    <glyph glyph-name="two" unicode="2" horiz-adv-x="1306" 
d="M1177 0h-1100v459c0 294 200 441 600 441h100c66.667 0 100 13.667 100 41c0 39.333 -33.333 59 -100 59h-700l200 400h400c400 0 600 -153 600 -459c0 -294 -200 -441 -600 -441c-133.333 0 -200 -13.667 -200 -41v-59h600l100 100v-500z" />
    <glyph glyph-name="three" unicode="3" horiz-adv-x="1306" 
d="M354 500v400h300c66.667 0 100 16.667 100 50s-33.333 50 -100 50h-400l-200 400h600c333.333 0 500 -150 500 -450c0 -108.667 -33.333 -192 -100 -250c66.667 -58 100 -141.333 100 -250c0 -300 -166.667 -450 -500 -450h-600l200 400h400c66.667 0 100 16.667 100 50
s-33.333 50 -100 50h-300z" />
    <glyph glyph-name="four" unicode="4" horiz-adv-x="1306" 
d="M1114 500v-500h-400v500h-700l200 900h400l-100 -500h200v500h400v-500h150l50 -400h-200z" />
    <glyph glyph-name="five" unicode="5" horiz-adv-x="1306" 
d="M178 0v400h600c66.667 0 100 16.667 100 50s-33.333 50 -100 50h-700v900h1200l-200 -400h-600v-100h400c266.667 0 400 -147 400 -441c0 -306 -133.333 -459 -400 -459h-700z" />
    <glyph glyph-name="six" unicode="6" horiz-adv-x="1306" 
d="M593 1000c-66.667 0 -100 -33.333 -100 -100h300c333.333 0 500 -150 500 -450s-166.667 -450 -500 -450h-200c-333.333 0 -500 150 -500 450v500c0 300 166.667 450 500 450h700l-200 -400h-500zM793 400c66.667 0 100 16.667 100 50s-33.333 50 -100 50h-200
c-66.667 0 -100 -16.667 -100 -50s33.333 -50 100 -50h200z" />
    <glyph glyph-name="seven" unicode="7" horiz-adv-x="1306" 
d="M489 591l164 409h-400l-200 400h1200l-318 -809l-203 -518l73 -73h-552z" />
    <glyph glyph-name="eight" unicode="8" horiz-adv-x="1306" 
d="M771 900c66.667 0 100 16.667 100 50s-33.333 50 -100 50h-200c-66.667 0 -100 -16.667 -100 -50s33.333 -50 100 -50h200zM771 1400c333.333 0 500 -150 500 -450c0 -108.667 -33.333 -192 -100 -250c66.667 -58 100 -141.333 100 -250c0 -300 -166.667 -450 -500 -450
h-200c-333.333 0 -500 150 -500 450c0 108.667 33.333 192 100 250c-66.667 58 -100 141.333 -100 250c0 300 166.667 450 500 450h200zM771 400c66.667 0 100 16.667 100 50v3c0 31.333 -32.333 47 -97 47h-200c-66.667 0 -101 -16.667 -103 -50
c0 -33.333 33.333 -50 100 -50h200z" />
    <glyph glyph-name="nine" unicode="9" horiz-adv-x="1306" 
d="M555 1000c-66.667 0 -100 -16.667 -100 -50s33.333 -50 100 -50h300v50c0 33.333 -33.333 50 -100 50h-200zM755 500l-200 0.000976562c-333.333 0 -500 150 -500 450s166.667 450 500 450h200c333.333 0 500 -150 500 -450v-5
c0 -164.667 -33.333 -346.334 -100 -545.001l-121 -327l73 -73h-552z" />
    <glyph glyph-name="colon" unicode=":" horiz-adv-x="600" 
d="M500 800h-400v400h400v-400zM500 200h-400v400h400v-400z" />
    <glyph glyph-name="semicolon" unicode=";" horiz-adv-x="600" 
d="M500 1200v-400h-400v400h400zM500 400l-600 -800l200 800h400z" />
    <glyph glyph-name="semicolon" unicode="&#x37e;" horiz-adv-x="600" 
d="M500 1200v-400h-400v400h400zM500 400l-600 -800l200 800h400z" />
    <glyph glyph-name="less" unicode="&#x3c;" horiz-adv-x="1098" 
d="M-35 900l1100 500v-400l-700 -300l700 -300v-400l-1100 500v400z" />
    <glyph glyph-name="equal" unicode="=" horiz-adv-x="1048" 
d="M988 1200l50 -400h-950l-50 400h950zM988 600l50 -400h-950l-50 400h950z" />
    <glyph glyph-name="greater" unicode="&#x3e;" horiz-adv-x="1155" 
d="M1174 500l-1100 -500v400l700 300l-700 300v400l1100 -500v-400z" />
    <glyph glyph-name="question" unicode="?" horiz-adv-x="1135" 
d="M247 900h350c66.667 0 100 13.667 100 41c0 39.333 -33.333 59 -100 59h-550l-50 400h550c400 0 600 -153 600 -459c0 -207.333 -166.667 -320 -500 -338v-103h-400v400zM647 0h-400v400h400v-400z" />
    <glyph glyph-name="at" unicode="@" horiz-adv-x="1379" 
d="M692 425c-52.667 -44.667 -119.669 -66.999 -201.002 -66.999c-75.333 0 -131 22 -167 66c-25.333 30.667 -38 68.667 -38 114c0 20 2.33301 41.667 7 65c25.333 120 88 226.167 188 318.5s208.667 138.5 326 138.5c60 0 142 -25.667 246 -77
c-74.667 -156.667 -118.334 -253.834 -131.001 -291.501s-22 -69.5 -28 -95.5c-2 -9.33301 -3 -17.333 -3 -24c0 -13.333 4.33301 -20 13 -20c48.667 0 95.667 30.833 141 92.5s77 135.5 95 221.5c12 41.333 18 78.666 18 111.999c0 57.333 -17.333 103.333 -52 138
c-54.667 55.333 -131 83 -229 83c-155.333 0 -295.666 -58.333 -420.999 -175s-206.666 -263.667 -243.999 -441c-8 -37.333 -12 -72.666 -12 -105.999c0 -68 17.333 -125.667 52 -173c51.333 -70 130 -105 236 -105c56 0 113.667 9.66699 173 29s115 52.666 167 99.999
l92 -164c-72 -53.333 -152.833 -94 -242.5 -122s-173.167 -42 -250.5 -42c-164.667 0 -287.667 52.333 -369 157c-57.333 72.667 -86 160.667 -86 264c0 44.667 5.33301 92 16 142c50.667 238 165.334 436.667 344.001 596s380.667 239 606 239c162 0 282.333 -45 361 -135
c55.333 -63.333 83 -142.666 83 -237.999c0 -40.667 -5 -84 -15 -130c-29.333 -137.333 -92.333 -259.5 -189 -366.5s-205.334 -160.5 -326.001 -160.5c-81.333 0 -134.666 19 -159.999 57zM763.998 886.001c-46.667 0 -94 -28.668 -142 -86.001
s-79.333 -119.666 -94 -186.999c-2 -10 -3 -19 -3 -27c0 -25.333 11.333 -38 34 -38c31.333 0 61.333 13.333 90 40s52.5 63 71.5 109l71.5 180c-4.66699 6 -14 9 -28 9z" />
    <glyph glyph-name="A" unicode="A" 
d="M800 1400l500 -1400h-400l-33 100h-471l152 400h185l-133 400l-352 -900l-538 -400l663 1731l-69 69h496z" />
    <glyph glyph-name="B" unicode="B" horiz-adv-x="1297" 
d="M799 400c66.667 0 100 33.333 100 100s-33.333 100 -100 100h-300v-200h300zM699 900c66.667 0 100 25 100 75s-33.333 75 -100 75h-200v-150h200zM699 1400c200 0 341.667 -66.665 425 -199.998c38 -60.667 57 -121.334 57 -182.001
c0 -72.667 -27.333 -145.334 -82 -218.001c133.333 -66.667 200 -166.667 200 -300c0 -333.333 -166.667 -500 -500 -500h-700v1300l-100 100h700z" />
    <glyph glyph-name="C" unicode="C" horiz-adv-x="1091" 
d="M686 1400l400 0.00195312l-100 -400h-300c-82.667 0 -153.334 -29.333 -212.001 -88s-88 -129.334 -88 -212.001s29.333 -153.334 88 -212.001s129.334 -88 212.001 -88h300l100 -400h-400c-193.333 -0 -358.333 68.333 -495 205s-205 301.667 -205 495
s68.333 358.333 205 495s301.667 205 495 205z" />
    <glyph glyph-name="D" unicode="D" horiz-adv-x="1282" 
d="M499 400l100 -0.00195312c82.667 0 153.334 29.333 212.001 88s88 129.334 88 212.001s-29.333 153.334 -88 212.001s-129.334 88 -212.001 88h-100v-600zM599 1400c193.333 0 358.333 -68.333 495 -205s205 -301.667 205 -495s-68.333 -358.333 -205 -495
s-301.667 -205 -495 -205h-500v1300l-100 100h600z" />
    <glyph glyph-name="E" unicode="E" horiz-adv-x="1063" 
d="M999 1400v-400h-500v-200h600l-600 -300v-100h500v-400h-900v1300l-100 100h1000z" />
    <glyph glyph-name="F" unicode="F" horiz-adv-x="1130" 
d="M1099 1400v-400h-600v-200h600l-600 -400v-400h-400v1300l-100 100h1100z" />
    <glyph glyph-name="G" unicode="G" horiz-adv-x="1155" 
d="M686 0c-193.333 0 -358.333 68.335 -495 205.002s-205 301.667 -205 495s68.333 358.333 205 495s301.667 205 495 205h400v-400h-400c-82.667 0 -153.334 -29.333 -212.001 -88s-88 -129.334 -88 -212.001s29.333 -153.334 88 -212.001s129.334 -88 212.001 -88v400h400
v-1200z" />
    <glyph glyph-name="H" unicode="H" horiz-adv-x="1471" 
d="M499 1400v-500h500v500h400v-1400h-400v500h-500v-500h-400v1300l-100 100h500z" />
    <glyph glyph-name="I" unicode="I" horiz-adv-x="569" 
d="M499 1400v-1400h-400v1300l-100 100h500z" />
    <glyph glyph-name="J" unicode="J" horiz-adv-x="698" 
d="M640 1400v-700c0 -466.667 -199 -700 -597 -700l-100 400h97c133.333 0 200 100 200 300v603l-97 97h497z" />
    <glyph glyph-name="K" unicode="K" horiz-adv-x="1422" 
d="M499 517v-517h-400v1300l-100 100h500v-650l100 150l300 500h500l-454 -681l154 -270l500 -849z" />
    <glyph glyph-name="L" unicode="L" horiz-adv-x="754" 
d="M499 1400v-1000h400l-400 -400h-400v1300l-100 100h500z" />
    <glyph glyph-name="M" unicode="M" horiz-adv-x="1767" 
d="M599 1400l300 -700l300 700h500v-1400h-400v667l-400 -867l-400 864v-664h-400v1300l-100 100h600z" />
    <glyph glyph-name="N" unicode="N" horiz-adv-x="1478" 
d="M1408 1400v-1500l-900 700v-600h-400v1500l900 -750v550l-100 100h500z" />
    <glyph glyph-name="O" unicode="O" horiz-adv-x="1368" 
d="M686 0c-193.333 0 -358.333 68.333 -495 205s-205 301.667 -205 495s68.333 358.333 205 495s301.667 205 495 205s358.333 -68.333 495 -205s205 -301.667 205 -495s-68.333 -358.333 -205 -495s-301.667 -205 -495 -205zM898 488c58.667 58.667 88 129.334 88 212.001
s-29.333 153.334 -88 212.001s-129.334 88 -212.001 88s-153.334 -29.333 -212.001 -88s-88 -129.334 -88 -212.001s29.333 -153.334 88 -212.001s129.334 -88 212.001 -88s153.334 29.333 212.001 88z" />
    <glyph glyph-name="P" unicode="P" horiz-adv-x="1350" 
d="M799 1400c333.333 0 500 -166.667 500 -500s-166.667 -500 -500 -500h-200v400h200c66.667 0 100 33.333 100 100s-33.333 100 -100 100h-300v-1000h-400v1300l-100 100h800z" />
    <glyph glyph-name="Q" unicode="Q" horiz-adv-x="1398" 
d="M986 700c0 82.667 -29.333 153.334 -88 212.001s-129.334 88 -212.001 88s-153.334 -29.333 -212.001 -88s-88 -129.334 -88 -212.001s29.333 -153.334 88 -212.001s129.334 -88 212.001 -88s153.334 29.333 212.001 88s88 129.334 88 212.001zM954 51
c-82 -34 -171.334 -51 -268.001 -51c-193.333 -0 -358.333 68.333 -495 205s-205 301.667 -205 495s68.333 358.333 205 495s301.667 205 495 205s358.333 -68.333 495 -205s205 -301.667 205 -495s-68.333 -358.333 -205 -495c-11.333 -11.333 -22.666 -22 -33.999 -32
l339 -573z" />
    <glyph glyph-name="R" unicode="R" horiz-adv-x="1350" 
d="M1599 -400l-1000 843l-2 357h202c66.667 0 100 33.333 100 100s-33.333 100 -100 100h-300v-1000h-400v1300l-100 100h800c333.333 0 500 -166.667 500 -500c0 -266.667 -66.667 -417 -200 -451z" />
    <glyph glyph-name="S" unicode="S" horiz-adv-x="1190" 
d="M498 500c-333.333 0 -500 151.333 -500 454c0 297.333 166.667 446 500 446h600l-400 -400h-200c-66.667 0 -100 -15.333 -100 -46c0 -36 33.333 -54 100 -54h200c333.333 0 500 -148.667 500 -446c0 -302.667 -166.667 -454 -500 -454h-600l400 400h200
c66.667 0 100 18 100 54c0 30.667 -33.333 46 -100 46h-200z" />
    <glyph glyph-name="T" unicode="T" horiz-adv-x="1042" 
d="M23 1400h1000v-400h-300v-1400l-400 400v1000h-200l-100 -100v500z" />
    <glyph glyph-name="U" unicode="U" horiz-adv-x="1325" 
d="M466 1400v-700c0 -200 66.667 -300 200 -300s200 100 200 300v700h400v-700c0 -466.667 -200 -700 -600 -700s-600 233.333 -600 700v600l-100 100h500z" />
    <glyph glyph-name="V" unicode="V" horiz-adv-x="1280" 
d="M356 1400l300 -800l300 800h400l-700 -1800l-662 1702v-2l-100 100h462z" />
    <glyph glyph-name="W" unicode="W" horiz-adv-x="1910" 
d="M359 1400l300 -800l300 900l300 -900l300 800h400l-500 -1400h-400l-100 280l-100 -280h-400l-468 1310l-90 90h458z" />
    <glyph glyph-name="X" unicode="X" horiz-adv-x="1284" 
d="M428 700l-476 700h453l244 -364l249 364h454l-470 -703l470 -697h-445l-261 362l-237 -362h-457z" />
    <glyph glyph-name="Y" unicode="Y" horiz-adv-x="1209" 
d="M1352 1400l-943 -1400h-457l476 700l-476 700h453l244 -364l190 277l-87 87h600z" />
    <glyph glyph-name="Z" unicode="Z" horiz-adv-x="1313" 
d="M1004 0h-1100l750 1000h-650l300 400h1100l-700 -1000h643z" />
    <glyph glyph-name="bracketleft" unicode="[" horiz-adv-x="800" 
d="M750 1600v-400h-300v-1000h300v-400h-700v1800h700z" />
    <glyph glyph-name="backslash" unicode="\" horiz-adv-x="1415" 
d="M456 1600l909 -1800h-418l-897 1800h406z" />
    <glyph glyph-name="bracketright" unicode="]" horiz-adv-x="800" 
d="M750 1600v-1800h-700v400h300v1000h-300v400h700z" />
    <glyph glyph-name="asciicircum" unicode="^" horiz-adv-x="1100" 
d="M850 1400l200 -500h-400l-100 250l-100 -250h-400l200 500h600z" />
    <glyph glyph-name="underscore" unicode="_" horiz-adv-x="1300" 
d="M1250 400l-50 -400h-1150l50 400h1150z" />
    <glyph glyph-name="grave" unicode="`" horiz-adv-x="700" 
d="M50 2000h400l200 -500h-400z" />
    <glyph glyph-name="a" unicode="a" 
d="M800 1400l500 -1400h-400l-33 100h-471l152 400h185l-133 400l-352 -900l-538 -400l663 1731l-69 69h496z" />
    <glyph glyph-name="b" unicode="b" horiz-adv-x="1293" 
d="M801 400c66.667 0 100 33.333 100 100s-33.333 100 -100 100h-300v-200h300zM701 900c66.667 0 100 25 100 75s-33.333 75 -100 75h-200v-150h200zM701 1400c200 0 341.667 -66.665 425 -199.998c38 -60.667 57 -121.334 57 -182.001
c0 -72.667 -27.333 -145.334 -82 -218.001c133.333 -66.667 200 -166.667 200 -300c0 -333.333 -166.667 -500 -500 -500h-700v1300l-100 100h700z" />
    <glyph glyph-name="c" unicode="c" horiz-adv-x="1086" 
d="M687 1400l400 0.00195312l-100 -400h-300c-82.667 0 -153.334 -29.333 -212.001 -88s-88 -129.334 -88 -212.001s29.333 -153.334 88 -212.001s129.334 -88 212.001 -88h300l100 -400h-400c-193.333 -0 -358.333 68.333 -495 205s-205 301.667 -205 495
s68.333 358.333 205 495s301.667 205 495 205z" />
    <glyph glyph-name="d" unicode="d" horiz-adv-x="1278" 
d="M501 400l100 -0.00195312c82.667 0 153.334 29.333 212.001 88s88 129.334 88 212.001s-29.333 153.334 -88 212.001s-129.334 88 -212.001 88h-100v-600zM601 1400c193.333 0 358.333 -68.333 495 -205s205 -301.667 205 -495s-68.333 -358.333 -205 -495
s-301.667 -205 -495 -205h-500v1300l-100 100h600z" />
    <glyph glyph-name="e" unicode="e" horiz-adv-x="1059" 
d="M1001 1400v-400h-500v-200h600l-600 -300v-100h500v-400h-900v1300l-100 100h1000z" />
    <glyph glyph-name="f" unicode="f" horiz-adv-x="1127" 
d="M1101 1400v-400h-600v-200h600l-600 -400v-400h-400v1300l-100 100h1100z" />
    <glyph glyph-name="g" unicode="g" 
d="M687 0c-193.333 0 -358.333 68.335 -495 205.002s-205 301.667 -205 495s68.333 358.333 205 495s301.667 205 495 205h400v-400h-400c-82.667 0 -153.334 -29.333 -212.001 -88s-88 -129.334 -88 -212.001s29.333 -153.334 88 -212.001s129.334 -88 212.001 -88v400h400
v-1200z" />
    <glyph glyph-name="h" unicode="h" horiz-adv-x="1467" 
d="M501 1400v-500h500v500h400v-1400h-400v500h-500v-500h-400v1300l-100 100h500z" />
    <glyph glyph-name="i" unicode="i" horiz-adv-x="565" 
d="M501 1400v-1400h-400v1300l-100 100h500z" />
    <glyph glyph-name="j" unicode="j" horiz-adv-x="693" 
d="M641 1400v-700c0 -466.667 -199 -700 -597 -700l-100 400h97c133.333 0 200 100 200 300v603l-97 97h497z" />
    <glyph glyph-name="k" unicode="k" horiz-adv-x="1417" 
d="M501 517v-517h-400v1300l-100 100h500v-650l100 150l300 500h500l-454 -681l154 -270l500 -849z" />
    <glyph glyph-name="l" unicode="l" horiz-adv-x="749" 
d="M501 1400v-1000h400l-400 -400h-400v1300l-100 100h500z" />
    <glyph glyph-name="m" unicode="m" horiz-adv-x="1764" 
d="M601 1400l300 -700l300 700h500v-1400h-400v667l-400 -867l-400 864v-664h-400v1300l-100 100h600z" />
    <glyph glyph-name="n" unicode="n" horiz-adv-x="1475" 
d="M1410 1400v-1500l-900 700v-600h-400v1500l900 -750v550l-100 100h500z" />
    <glyph glyph-name="o" unicode="o" horiz-adv-x="1363" 
d="M687 0c-193.333 0 -358.333 68.333 -495 205s-205 301.667 -205 495s68.333 358.333 205 495s301.667 205 495 205s358.333 -68.333 495 -205s205 -301.667 205 -495s-68.333 -358.333 -205 -495s-301.667 -205 -495 -205zM899 488c58.667 58.667 88 129.334 88 212.001
s-29.333 153.334 -88 212.001s-129.334 88 -212.001 88s-153.334 -29.333 -212.001 -88s-88 -129.334 -88 -212.001s29.333 -153.334 88 -212.001s129.334 -88 212.001 -88s153.334 29.333 212.001 88z" />
    <glyph glyph-name="p" unicode="p" horiz-adv-x="1350" 
d="M801 1400c333.333 0 500 -166.667 500 -500s-166.667 -500 -500 -500h-200v400h200c66.667 0 100 33.333 100 100s-33.333 100 -100 100h-300v-1000h-400v1300l-100 100h800z" />
    <glyph glyph-name="q" unicode="q" horiz-adv-x="1393" 
d="M987 700c0 82.667 -29.333 153.334 -88 212.001s-129.334 88 -212.001 88s-153.334 -29.333 -212.001 -88s-88 -129.334 -88 -212.001s29.333 -153.334 88 -212.001s129.334 -88 212.001 -88s153.334 29.333 212.001 88s88 129.334 88 212.001zM955 51
c-82 -34 -171.334 -51 -268.001 -51c-193.333 -0 -358.333 68.333 -495 205s-205 301.667 -205 495s68.333 358.333 205 495s301.667 205 495 205s358.333 -68.333 495 -205s205 -301.667 205 -495s-68.333 -358.333 -205 -495c-11.333 -11.333 -22.666 -22 -33.999 -32
l339 -573z" />
    <glyph glyph-name="r" unicode="r" horiz-adv-x="1350" 
d="M1601 -400l-1000 843l-2 357h202c66.667 0 100 33.333 100 100s-33.333 100 -100 100h-300v-1000h-400v1300l-100 100h800c333.333 0 500 -166.667 500 -500c0 -266.667 -66.667 -417 -200 -451z" />
    <glyph glyph-name="s" unicode="s" horiz-adv-x="1185" 
d="M499 500c-333.333 0 -500 151.333 -500 454c0 297.333 166.667 446 500 446h600l-400 -400h-200c-66.667 0 -100 -15.333 -100 -46c0 -36 33.333 -54 100 -54h200c333.333 0 500 -148.667 500 -446c0 -302.667 -166.667 -454 -500 -454h-600l400 400h200
c66.667 0 100 18 100 54c0 30.667 -33.333 46 -100 46h-200z" />
    <glyph glyph-name="t" unicode="t" horiz-adv-x="1037" 
d="M24 1400h1000v-400h-300v-1400l-400 400v1000h-200l-100 -100v500z" />
    <glyph glyph-name="u" unicode="u" horiz-adv-x="1320" 
d="M467 1400v-700c0 -200 66.667 -300 200 -300s200 100 200 300v700h400v-700c0 -466.667 -200 -700 -600 -700s-600 233.333 -600 700v600l-100 100h500z" />
    <glyph glyph-name="v" unicode="v" horiz-adv-x="1275" 
d="M357 1400l300 -800l300 800h400l-700 -1800l-662 1702v-2l-100 100h462z" />
    <glyph glyph-name="w" unicode="w" horiz-adv-x="1900" 
d="M360 1400l300 -800l300 900l300 -900l300 800h400l-500 -1400h-400l-100 280l-100 -280h-400l-468 1310l-90 90h458z" />
    <glyph glyph-name="x" unicode="x" horiz-adv-x="1278" 
d="M429 700l-476 700h453l244 -364l249 364h454l-470 -703l470 -697h-445l-261 362l-237 -362h-457z" />
    <glyph glyph-name="y" unicode="y" horiz-adv-x="1203" 
d="M1353 1400l-943 -1400h-457l476 700l-476 700h453l244 -364l190 277l-87 87h600z" />
    <glyph glyph-name="z" unicode="z" horiz-adv-x="1309" 
d="M1006 0h-1100l750 1000h-650l300 400h1100l-700 -1000h643z" />
    <glyph glyph-name="braceleft" unicode="{" horiz-adv-x="1000" 
d="M250 900c0 466.667 233.333 700 700 700v-400c-200 0 -300 -100 -300 -300v-400c0 -200 100 -300 300 -300v-400c-466.667 0 -700 233.333 -700 700h-200v400h200z" />
    <glyph glyph-name="bar" unicode="|" horiz-adv-x="500" 
d="M450 1600v-1800h-400v1800h400z" />
    <glyph glyph-name="braceright" unicode="}" horiz-adv-x="1000" 
d="M750 500c0 -466.667 -233.333 -700 -700 -700v400c200 0 300 100 300 300v400c0 200 -100 300 -300 300v400c466.667 0 700 -233.333 700 -700h200v-400h-200z" />
    <glyph glyph-name="asciitilde" unicode="~" horiz-adv-x="1100" 
d="M50 433v400c100 33.333 191.667 50 275 50s158.333 -16.667 225 -50c44.667 -22 93 -33 145 -33c103.333 0 221.666 44.333 354.999 133v-400c-133.333 -88.667 -251.666 -133 -354.999 -133c-52 0 -100.333 11 -145 33c-66.667 33.333 -141.667 50 -225 50
s-175 -16.667 -275 -50z" />
    <glyph glyph-name="exclamdown" unicode="&#xa1;" horiz-adv-x="600" 
d="M500 900l50 -900h-500l50 900h400zM500 1000h-400v400h400v-400z" />
    <glyph glyph-name="cent" unicode="&#xa2;" horiz-adv-x="1427" 
d="M650 1394v206h200v-206c150.667 -20 282.334 -86.333 395.001 -199c55.333 -55.333 99.333 -115 132 -179l-357 -184c-14 28.667 -33.333 55.334 -58 80.001c-58.667 58.667 -129.334 88 -212.001 88s-153.334 -29.333 -212.001 -88s-88 -129.334 -88 -212.001
s29.333 -153.334 88 -212.001s129.334 -88 212.001 -88s153.334 29.333 212.001 88c16.667 16.667 31 34.334 43 53.001l338 -215c-27.333 -42.667 -60 -83 -98 -121c-112.667 -112.667 -244.334 -179 -395.001 -199v-206h-200v206
c-150.667 20 -282.334 86.333 -395.001 199c-136.667 136.667 -205 301.667 -205 495s68.333 358.333 205 495c112.667 112.667 244.334 179 395.001 199z" />
    <glyph glyph-name="sterling" unicode="&#xa3;" horiz-adv-x="1300" 
d="M917 900h-0.999023c-34 66.667 -89.333 100 -166 100s-131.334 -33.333 -164.001 -100h164l50 -400h-250v-102h700l-50 -398h-1050v500h-50l-50 400h114c52.667 333.333 248 500 586 500c195.333 0 343.333 -55.667 444 -167l-194 -233z" />
    <glyph glyph-name="currency" unicode="&#xa4;" horiz-adv-x="1350" 
d="M921 725c0 68 -24 126 -72 174s-106 72 -174 72s-126 -24 -174 -72s-72 -106 -72 -174s24 -126 72 -174s106 -72 174 -72s126 24 174 72s72 106 72 174zM380 230l-174.002 -218l-156 125l179 224c-86 104 -129 225.333 -129 364c0 130.667 38 245.667 114 345l-164 205
l156 125l154 -193c92 62 197 93 315 93s223 -31 315 -93l154 193l156 -125l-164 -205c76 -99.333 114 -214.333 114 -345c0 -138.667 -43 -260 -129 -364l179 -224l-156 -125l-174 218c-87.333 -53.333 -185.666 -80 -294.999 -80s-207.666 26.667 -294.999 80z" />
    <glyph glyph-name="yen" unicode="&#xa5;" horiz-adv-x="1500" 
d="M950 200v-200h-400v200h-250l-50 400h300l-500 800h427l273 -400l273 400h427l-500 -800h250l50 -400h-300z" />
    <glyph glyph-name="brokenbar" unicode="&#xa6;" horiz-adv-x="500" 
d="M50 750v850h400v-850h-400zM450 650v-850h-400v850h400z" />
    <glyph glyph-name="section" unicode="&#xa7;" horiz-adv-x="9800" 
d="M208 1432l204 -542l203 542h271l-474 -1220l-449 1154v-2l-68 68h313zM9256 822c-226 0 -339 102.667 -339 308c0 201.333 113 302 339 302h407l-271 -271h-136c-44.667 0 -67 -10.333 -67 -31c0 -24.667 22.333 -37 67 -37h136c226 0 339 -100.667 339 -302
c0 -205.333 -113 -308 -339 -308h-407l271 271h136c45.333 0 68 12.333 68 37c0 20.667 -22.667 31 -68 31h-136zM7826 483l-23 68h-319l103 271h125l-90 271l-239 -610l-364 -271l449 1173l-47 47h337l278 -778v710l-68 68h542c226 0 339 -113 339 -339
c0 -180.667 -45 -282.667 -135 -306l339 -575l-678 571l-2 242h137c45.333 0 68 22.667 68 68s-22.667 68 -68 68h-203v-678h-481zM6176 1432l204 -542l203 610l204 -610l203 542h271l-339 -949h-271l-68 190l-68 -190h-271l-317 888l-61 61h310zM5527 1432v-271h-339v-136
h407l-407 -203v-68h339v-271h-611v881l-67 68h678zM5052 212l-678 571l-1 242h137c44.666 0 67 22.667 67 68s-22.334 68 -67 68h-204v-678h-271v881l-68 68h543c226 0 339 -113 339 -339c0 -180.667 -45.334 -282.667 -136 -306zM3967 1432v-949h-271v881l-68 68h339z
M3289 1432c226 0 339 -113 339 -339s-113 -339 -339 -339h-136v271h136c45.333 0 68 22.667 68 68s-22.667 68 -68 68h-203v-678h-272v881l-68 68h543zM1451 483l-22 68h-320l104 271h125l-90 271l-239 -610l-365 -271l450 1173l-47 47h336l278 -778v710l-67 68h407
l203 -474l203 474h339v-949h-271v452l-271 -588l-271 586v-450h-482z" />
    <glyph glyph-name="dieresis" unicode="&#xa8;" horiz-adv-x="1000" 
d="M450 1500h-400v400h400v-400zM950 1500h-400v400h400v-400z" />
    <glyph glyph-name="copyright" unicode="&#xa9;" horiz-adv-x="1366" 
d="M689 0c-193.333 0 -358.333 68.333 -495 205s-205 301.667 -205 495s68.333 358.333 205 495s301.667 205 495 205s358.333 -68.333 495 -205s205 -301.667 205 -495s-68.333 -358.333 -205 -495s-301.667 -205 -495 -205zM692 200c137.333 0 254.5 48.5 351.5 145.5
s145.5 214.5 145.5 352.5c0 137.333 -48.5 254.5 -145.5 351.5s-214.167 145.5 -351.5 145.5c-138 0 -255.5 -48.5 -352.5 -145.5s-145.5 -214.167 -145.5 -351.5c0 -138 48.5 -255.5 145.5 -352.5s214.5 -145.5 352.5 -145.5zM714 1050l175 -0.00195312l25 -200h-200
c-41.333 0 -76.666 -14.667 -105.999 -44s-44 -64.666 -44 -105.999s14.667 -76.666 44 -105.999s64.666 -44 105.999 -44h175l25 -200h-200c-96.667 0 -179.167 34.167 -247.5 102.5s-102.5 150.833 -102.5 247.5s34.167 179.167 102.5 247.5s150.833 102.5 247.5 102.5z
" />
    <glyph glyph-name="guillemotleft" unicode="&#xab;" horiz-adv-x="2250" 
d="M50 900l1100 500v-400l-700 -300l700 -300v-400l-1100 500v400zM1100 900l1100 500v-400l-700 -300l700 -300v-400l-1100 500v400z" />
    <glyph glyph-name="registered" unicode="&#xae;" horiz-adv-x="1500" 
d="M750 0c-193.333 0 -358.333 68.333 -495 205s-205 301.667 -205 495s68.333 358.333 205 495s301.667 205 495 205s358.333 -68.333 495 -205s205 -301.667 205 -495s-68.333 -358.333 -205 -495s-301.667 -205 -495 -205zM753 200c137.333 0 254.5 48.5 351.5 145.5
s145.5 214.5 145.5 352.5c0 137.333 -48.5 254.5 -145.5 351.5s-214.167 145.5 -351.5 145.5c-138 0 -255.5 -48.5 -352.5 -145.5s-145.5 -214.167 -145.5 -351.5c0 -138 48.5 -255.5 145.5 -352.5s214.5 -145.5 352.5 -145.5zM674 851v-100h151c33.333 0 50 16.667 50 50
s-16.667 50 -50 50h-151zM706 550l-32 0.000976562v-200h-200v701h351c166.667 0 250 -83.333 250 -250c0 -130.667 -50.667 -210.334 -152 -239.001l152 -212h-225z" />
    <glyph glyph-name="macron" unicode="&#xaf;" horiz-adv-x="900" 
d="M850 1900v-400h-800v400h800z" />
    <glyph glyph-name="degree" unicode="&#xb0;" horiz-adv-x="500" 
d="M450 1500h-400v400h400v-400z" />
    <glyph glyph-name="plusminus" unicode="&#xb1;" horiz-adv-x="1100" 
d="M750 900h300v-400h-300v-300h-400v300h-300v400h300v300h400v-300zM1050 -300h-1000v400h1000v-400z" />
    <glyph glyph-name="acute" unicode="&#xb4;" horiz-adv-x="700" 
d="M450 1500h-400l200 500h400z" />
    <glyph glyph-name="mu" unicode="&#xb5;" horiz-adv-x="1300" 
d="M450 700c0 -200 66.667 -300 200 -300s200 100 200 300v700h400v-700c0 -466.667 -200 -700 -600 -700c-73.333 0 -140 8 -200 24v-324h-400v1700h400v-700z" />
    <glyph glyph-name="paragraph" unicode="&#xb6;" horiz-adv-x="1300" 
d="M1250 1400v-400h-100v-1300h-400v1300h-200v-1300h-400v950h-100v750h1200z" />
    <glyph glyph-name="guillemotright" unicode="&#xbb;" horiz-adv-x="2250" 
d="M2200 900v-400l-1100 -500v400l700 300l-700 300v400zM1150 900v-400l-1100 -500v400l700 300l-700 300v400z" />
    <glyph glyph-name="onequarter" unicode="&#xbc;" horiz-adv-x="1600" 
d="M399 1397v-697h-199v498h-50l25 199h224zM1350 1400l-849 -1400h-451l853 1400h447zM1450 250v-250h-200v250h-350l100 450h200l-50 -250h100v250h200v-250h75l25 -200h-100z" />
    <glyph glyph-name="onehalf" unicode="&#xbd;" horiz-adv-x="1600" 
d="M399 1397v-697h-199v498h-50l25 199h224zM1350 1400l-849 -1400h-451l853 1400h447zM1250 700c200 0 300 -76.333 300 -229c0 -147.333 -100 -221 -300 -221c-66.667 0 -100 -6.66699 -100 -20v-30h375l25 -200h-600v230c0 146.667 100 220 300 220h50
c33.333 0 50 7 50 21c0 19.333 -16.667 29 -50 29h-300l-25 200h275z" />
    <glyph glyph-name="threequarters" unicode="&#xbe;" horiz-adv-x="1700" 
d="M1450 1400l-849 -1400h-451l853 1400h447zM1550 250v-250h-200v250h-350l100 450h200l-50 -250h100v250h200v-250h75l25 -200h-100zM201 948v201.001h150c34 0 51 8.33301 51 25s-17 25 -51 25h-276l-25 201h301c167.333 0 251 -75.333 251 -226
c0 -54.667 -16.667 -96.334 -50 -125.001c33.333 -29.333 50 -71.333 50 -126c0 -150.667 -83.667 -226 -251 -226h-276l-25 201h301c34 0 51 8.33301 51 25s-17 25 -51 25h-150z" />
    <glyph glyph-name="questiondown" unicode="&#xbf;" horiz-adv-x="1250" 
d="M300 500v400h400v-103c333.333 -18 500 -130.667 500 -338c0 -306 -200 -459 -600 -459h-550l50 400h550c66.667 0 100 19.667 100 59c0 27.333 -33.333 41 -100 41h-350zM700 1400v-400h-400v400h400z" />
    <glyph glyph-name="Agrave" unicode="&#xc0;" 
d="M800 1400l500 -1400h-400l-33 100h-471l152 400h185l-133 400l-352 -900l-538 -400l663 1731l-69 69h496zM550 1500l-200 500h400l200 -500h-400z" />
    <glyph glyph-name="Aacute" unicode="&#xc1;" 
d="M800 1400l500 -1400h-400l-33 100h-471l152 400h185l-133 400l-352 -900l-538 -400l663 1731l-69 69h496zM950 1500h-400l200 500h400z" />
    <glyph glyph-name="Acircumflex" unicode="&#xc2;" 
d="M800 1400l500 -1400h-400l-33 100h-471l152 400h185l-133 400l-352 -900l-538 -400l663 1731l-69 69h496zM1050 2000l200 -500h-400l-100 250l-100 -250h-400l200 500h600z" />
    <glyph glyph-name="Atilde" unicode="&#xc3;" 
d="M800 1400l500 -1400h-400l-33 100h-471l152 400h185l-133 400l-352 -900l-538 -400l663 1731l-69 69h496zM250 1533v400c100 33.333 191.667 50 275 50s158.333 -16.667 225 -50c44.667 -22 93 -33 145 -33c103.333 0 221.666 44.333 354.999 133v-400
c-133.333 -88.667 -251.666 -133 -354.999 -133c-52 0 -100.333 11 -145 33c-66.667 33.333 -141.667 50 -225 50s-175 -16.667 -275 -50z" />
    <glyph glyph-name="Adieresis" unicode="&#xc4;" 
d="M800 1400l500 -1400h-400l-33 100h-471l152 400h185l-133 400l-352 -900l-538 -400l663 1731l-69 69h496zM700 1500h-400v400h400v-400zM1200 1500h-400v400h400v-400z" />
    <glyph glyph-name="Aring" unicode="&#xc5;" 
d="M800 1400l500 -1400h-400l-33 100h-471l152 400h185l-133 400l-352 -900l-538 -400l663 1731l-69 69h496zM750 1500c-62 0 -115 21 -159 63s-66 92.333 -66 151c0 59.333 22 110 66 152s97 63 159 63s115 -21 159 -63s66 -92.667 66 -152c0 -58.667 -22 -109 -66 -151
s-97 -63 -159 -63zM750 1600c34.667 0 64.167 12.167 88.5 36.5s36.5 53.833 36.5 88.5s-12.167 64.167 -36.5 88.5s-53.833 36.5 -88.5 36.5s-64.167 -12.167 -88.5 -36.5s-36.5 -53.833 -36.5 -88.5s12.167 -64.167 36.5 -88.5s53.833 -36.5 88.5 -36.5z" />
    <glyph glyph-name="AE" unicode="&#xc6;" horiz-adv-x="2133" 
d="M1048 0l-33 100h-471l152 400h185l-133 400l-352 -900l-538 -400l663 1731l-69 69h496l233 -652v552l-100 100h1000v-400h-500v-200h600l-600 -300v-100h500v-400h-1033z" />
    <glyph glyph-name="Ccedilla" unicode="&#xc7;" horiz-adv-x="1086" 
d="M486 27c-110 32 -208.334 91.335 -295.001 178.002c-136.667 136.667 -205 301.667 -205 495s68.333 358.333 205 495s301.667 205 495 205h400l-100 -400h-300c-82.667 0 -153.334 -29.333 -212.001 -88s-88 -129.334 -88 -212.001s29.333 -153.334 88 -212.001
s129.334 -88 212.001 -88h300l100 -400h-400c-34 0 -67.333 2 -100 6v-56c133.333 0 200 -50 200 -150s-66.667 -150 -200 -150h-150v100h100c66.667 0 108.334 8.33301 125.001 25c8.66699 8.66699 13 17 13 25c0 8.66699 -6.33301 19.167 -19 31.5s-69 18.5 -169 18.5v177
z" />
    <glyph glyph-name="Egrave" unicode="&#xc8;" horiz-adv-x="1063" 
d="M999 1400v-400h-500v-200h600l-600 -300v-100h500v-400h-900v1300l-100 100h1000zM300 1500l-200 500h400l200 -500h-400z" />
    <glyph glyph-name="Eacute" unicode="&#xc9;" horiz-adv-x="1063" 
d="M999 1400v-400h-500v-200h600l-600 -300v-100h500v-400h-900v1300l-100 100h1000zM700 1500h-400l200 500h400z" />
    <glyph glyph-name="Ecircumflex" unicode="&#xca;" horiz-adv-x="1063" 
d="M999 1400v-400h-500v-200h600l-600 -300v-100h500v-400h-900v1300l-100 100h1000zM800 2000l200 -500h-400l-100 250l-100 -250h-400l200 500h600z" />
    <glyph glyph-name="Edieresis" unicode="&#xcb;" horiz-adv-x="1063" 
d="M999 1400v-400h-500v-200h600l-600 -300v-100h500v-400h-900v1300l-100 100h1000zM450 1500h-400v400h400v-400zM950 1500h-400v400h400v-400z" />
    <glyph glyph-name="Igrave" unicode="&#xcc;" horiz-adv-x="569" 
d="M499 1400v-1400h-400v1300l-100 100h500zM50 1500l-200 500h400l200 -500h-400z" />
    <glyph glyph-name="Iacute" unicode="&#xcd;" horiz-adv-x="569" 
d="M499 1400v-1400h-400v1300l-100 100h500zM450 1500h-400l200 500h400z" />
    <glyph glyph-name="Icircumflex" unicode="&#xce;" horiz-adv-x="569" 
d="M499 1400v-1400h-400v1300l-100 100h500zM550 2000l200 -500h-400l-100 250l-100 -250h-400l200 500h600z" />
    <glyph glyph-name="Idieresis" unicode="&#xcf;" horiz-adv-x="569" 
d="M499 1400v-1400h-400v1300l-100 100h500zM200 1500h-400v400h400v-400zM700 1500h-400v400h400v-400z" />
    <glyph glyph-name="Eth" unicode="&#xd0;" horiz-adv-x="1335" 
d="M130 900v500h600c400 0 600 -233.333 600 -700s-200 -700 -600 -700h-600v500h-100v400h100zM530 900h200v-400h-200v-100h200c133.333 0 200 100 200 300s-66.667 300 -200 300h-200v-100z" />
    <glyph glyph-name="Ntilde" unicode="&#xd1;" horiz-adv-x="1478" 
d="M1408 1400v-1500l-900 700v-600h-400v1500l900 -750v550l-100 100h500zM200 1533v400c100 33.333 191.667 50 275 50s158.333 -16.667 225 -50c44.667 -22 93 -33 145 -33c103.333 0 221.666 44.333 354.999 133v-400c-133.333 -88.667 -251.666 -133 -354.999 -133
c-52 0 -100.333 11 -145 33c-66.667 33.333 -141.667 50 -225 50s-175 -16.667 -275 -50z" />
    <glyph glyph-name="Ograve" unicode="&#xd2;" horiz-adv-x="1368" 
d="M686 0c-193.333 0 -358.333 68.333 -495 205s-205 301.667 -205 495s68.333 358.333 205 495s301.667 205 495 205s358.333 -68.333 495 -205s205 -301.667 205 -495s-68.333 -358.333 -205 -495s-301.667 -205 -495 -205zM898 488c58.667 58.667 88 129.334 88 212.001
s-29.333 153.334 -88 212.001s-129.334 88 -212.001 88s-153.334 -29.333 -212.001 -88s-88 -129.334 -88 -212.001s29.333 -153.334 88 -212.001s129.334 -88 212.001 -88s153.334 29.333 212.001 88zM550 1500l-200 500h400l200 -500h-400z" />
    <glyph glyph-name="Oacute" unicode="&#xd3;" horiz-adv-x="1368" 
d="M686 0c-193.333 0 -358.333 68.333 -495 205s-205 301.667 -205 495s68.333 358.333 205 495s301.667 205 495 205s358.333 -68.333 495 -205s205 -301.667 205 -495s-68.333 -358.333 -205 -495s-301.667 -205 -495 -205zM898 488c58.667 58.667 88 129.334 88 212.001
s-29.333 153.334 -88 212.001s-129.334 88 -212.001 88s-153.334 -29.333 -212.001 -88s-88 -129.334 -88 -212.001s29.333 -153.334 88 -212.001s129.334 -88 212.001 -88s153.334 29.333 212.001 88zM950 1500h-400l200 500h400z" />
    <glyph glyph-name="Ocircumflex" unicode="&#xd4;" horiz-adv-x="1368" 
d="M686 0c-193.333 0 -358.333 68.333 -495 205s-205 301.667 -205 495s68.333 358.333 205 495s301.667 205 495 205s358.333 -68.333 495 -205s205 -301.667 205 -495s-68.333 -358.333 -205 -495s-301.667 -205 -495 -205zM898 488c58.667 58.667 88 129.334 88 212.001
s-29.333 153.334 -88 212.001s-129.334 88 -212.001 88s-153.334 -29.333 -212.001 -88s-88 -129.334 -88 -212.001s29.333 -153.334 88 -212.001s129.334 -88 212.001 -88s153.334 29.333 212.001 88zM1050 2000l200 -500h-400l-100 250l-100 -250h-400l200 500h600z" />
    <glyph glyph-name="Otilde" unicode="&#xd5;" horiz-adv-x="1368" 
d="M686 0c-193.333 0 -358.333 68.333 -495 205s-205 301.667 -205 495s68.333 358.333 205 495s301.667 205 495 205s358.333 -68.333 495 -205s205 -301.667 205 -495s-68.333 -358.333 -205 -495s-301.667 -205 -495 -205zM898 488c58.667 58.667 88 129.334 88 212.001
s-29.333 153.334 -88 212.001s-129.334 88 -212.001 88s-153.334 -29.333 -212.001 -88s-88 -129.334 -88 -212.001s29.333 -153.334 88 -212.001s129.334 -88 212.001 -88s153.334 29.333 212.001 88zM250 1533v400c100 33.333 191.667 50 275 50s158.333 -16.667 225 -50
c44.667 -22 93 -33 145 -33c103.333 0 221.666 44.333 354.999 133v-400c-133.333 -88.667 -251.666 -133 -354.999 -133c-52 0 -100.333 11 -145 33c-66.667 33.333 -141.667 50 -225 50s-175 -16.667 -275 -50z" />
    <glyph glyph-name="Odieresis" unicode="&#xd6;" horiz-adv-x="1368" 
d="M686 0c-193.333 0 -358.333 68.333 -495 205s-205 301.667 -205 495s68.333 358.333 205 495s301.667 205 495 205s358.333 -68.333 495 -205s205 -301.667 205 -495s-68.333 -358.333 -205 -495s-301.667 -205 -495 -205zM898 488c58.667 58.667 88 129.334 88 212.001
s-29.333 153.334 -88 212.001s-129.334 88 -212.001 88s-153.334 -29.333 -212.001 -88s-88 -129.334 -88 -212.001s29.333 -153.334 88 -212.001s129.334 -88 212.001 -88s153.334 29.333 212.001 88zM700 1500h-400v400h400v-400zM1200 1500h-400v400h400v-400z" />
    <glyph glyph-name="multiply" unicode="&#xd7;" horiz-adv-x="1218" 
d="M597 362l-94 -162h-453l329 500l-327 500h451l97 -164l111 163l457 1l-335 -503l335 -497h-465z" />
    <glyph glyph-name="Oslash" unicode="&#xd8;" horiz-adv-x="1402" 
d="M642 996c-60.667 -10.667 -113.667 -38.666 -159 -83.999c-58.667 -58.667 -88 -129.334 -88 -212.001c0 -48.667 10 -93 30 -133zM758 406.001c56 11.333 105.667 38.666 149 81.999c58.667 58.667 88 129.334 88 212.001c0 46 -9 88.333 -27 127zM1164 1220l26 -25
c136.667 -136.667 205 -301.667 205 -495s-68.333 -358.333 -205 -495s-301.667 -205 -495 -205c-46 0 -90.667 4 -134 12l-105 -212h-418l191 378c-10 8.66699 -19.667 17.667 -29 27c-136.667 136.667 -205 301.667 -205 495s68.333 358.333 205 495s301.667 205 495 205
c50 0 98 -4.66699 144 -14l108 214h406z" />
    <glyph glyph-name="Ugrave" unicode="&#xd9;" horiz-adv-x="1325" 
d="M466 1400v-700c0 -200 66.667 -300 200 -300s200 100 200 300v700h400v-700c0 -466.667 -200 -700 -600 -700s-600 233.333 -600 700v600l-100 100h500zM450 1500l-200 500h400l200 -500h-400z" />
    <glyph glyph-name="Uacute" unicode="&#xda;" horiz-adv-x="1325" 
d="M466 1400v-700c0 -200 66.667 -300 200 -300s200 100 200 300v700h400v-700c0 -466.667 -200 -700 -600 -700s-600 233.333 -600 700v600l-100 100h500zM850 1500h-400l200 500h400z" />
    <glyph glyph-name="Ucircumflex" unicode="&#xdb;" horiz-adv-x="1325" 
d="M466 1400v-700c0 -200 66.667 -300 200 -300s200 100 200 300v700h400v-700c0 -466.667 -200 -700 -600 -700s-600 233.333 -600 700v600l-100 100h500zM950 2000l200 -500h-400l-100 250l-100 -250h-400l200 500h600z" />
    <glyph glyph-name="Udieresis" unicode="&#xdc;" horiz-adv-x="1325" 
d="M466 1400v-700c0 -200 66.667 -300 200 -300s200 100 200 300v700h400v-700c0 -466.667 -200 -700 -600 -700s-600 233.333 -600 700v600l-100 100h500zM600 1500h-400v400h400v-400zM1100 1500h-400v400h400v-400z" />
    <glyph glyph-name="Yacute" unicode="&#xdd;" horiz-adv-x="1209" 
d="M1352 1400l-943 -1400h-457l476 700l-476 700h453l244 -364l190 277l-87 87h600zM950 1500h-400l200 500h400z" />
    <glyph glyph-name="Thorn" unicode="&#xde;" horiz-adv-x="1302" 
d="M508 1350h300c333.333 0 500 -183.333 500 -550s-166.667 -550 -500 -550h-300v-250h-400v1550h400v-200zM508 650h300c66.667 0 100 50 100 150s-33.333 150 -100 150h-300v-300z" />
    <glyph glyph-name="germandbls" unicode="&#xdf;" horiz-adv-x="1299" 
d="M708 900c66.667 0 100 25 100 75s-33.333 75 -100 75h-200v-150h200zM508 0l-400 0.00195312v1400h600c200 0 341.667 -66.667 425 -200c38 -60.667 57 -121.334 57 -182.001c0 -72.667 -27.333 -145.334 -82 -218.001c133.333 -66.667 200 -166.667 200 -300
c0 -333.333 -166.667 -500 -500 -500h-200v400h200c66.667 0 100 33.333 100 100s-33.333 100 -100 100h-300v-600z" />
    <glyph glyph-name="agrave" unicode="&#xe0;" 
d="M800 1400l500 -1400h-400l-33 100h-471l152 400h185l-133 400l-352 -900l-538 -400l663 1731l-69 69h496zM550 1500l-200 500h400l200 -500h-400z" />
    <glyph glyph-name="aacute" unicode="&#xe1;" 
d="M800 1400l500 -1400h-400l-33 100h-471l152 400h185l-133 400l-352 -900l-538 -400l663 1731l-69 69h496zM950 1500h-400l200 500h400z" />
    <glyph glyph-name="acircumflex" unicode="&#xe2;" 
d="M800 1400l500 -1400h-400l-33 100h-471l152 400h185l-133 400l-352 -900l-538 -400l663 1731l-69 69h496zM1050 2000l200 -500h-400l-100 250l-100 -250h-400l200 500h600z" />
    <glyph glyph-name="atilde" unicode="&#xe3;" 
d="M800 1400l500 -1400h-400l-33 100h-471l152 400h185l-133 400l-352 -900l-538 -400l663 1731l-69 69h496zM250 1533v400c100 33.333 191.667 50 275 50s158.333 -16.667 225 -50c44.667 -22 93 -33 145 -33c103.333 0 221.666 44.333 354.999 133v-400
c-133.333 -88.667 -251.666 -133 -354.999 -133c-52 0 -100.333 11 -145 33c-66.667 33.333 -141.667 50 -225 50s-175 -16.667 -275 -50z" />
    <glyph glyph-name="adieresis" unicode="&#xe4;" 
d="M800 1400l500 -1400h-400l-33 100h-471l152 400h185l-133 400l-352 -900l-538 -400l663 1731l-69 69h496zM700 1500h-400v400h400v-400zM1200 1500h-400v400h400v-400z" />
    <glyph glyph-name="aring" unicode="&#xe5;" 
d="M800 1400l500 -1400h-400l-33 100h-471l152 400h185l-133 400l-352 -900l-538 -400l663 1731l-69 69h496zM750 1500c-62 0 -115 21 -159 63s-66 92.333 -66 151c0 59.333 22 110 66 152s97 63 159 63s115 -21 159 -63s66 -92.667 66 -152c0 -58.667 -22 -109 -66 -151
s-97 -63 -159 -63zM750 1600c34.667 0 64.167 12.167 88.5 36.5s36.5 53.833 36.5 88.5s-12.167 64.167 -36.5 88.5s-53.833 36.5 -88.5 36.5s-64.167 -12.167 -88.5 -36.5s-36.5 -53.833 -36.5 -88.5s12.167 -64.167 36.5 -88.5s53.833 -36.5 88.5 -36.5z" />
    <glyph glyph-name="ae" unicode="&#xe6;" horiz-adv-x="2135" 
d="M1051 0l-33 100h-471l152 400h185l-133 400l-352 -900l-538 -400l663 1731l-69 69h496l233 -652v552l-100 100h1000v-400h-500v-200h600l-600 -300v-100h500v-400h-1033z" />
    <glyph glyph-name="ccedilla" unicode="&#xe7;" horiz-adv-x="1088" 
d="M539 15c-130 26.667 -245 90.002 -345 190.002c-136.667 136.667 -205 301.667 -205 495s68.333 358.333 205 495s301.667 205 495 205h400l-100 -400h-300c-82.667 0 -153.334 -29.333 -212.001 -88s-88 -129.334 -88 -212.001s29.333 -153.334 88 -212.001
s129.334 -88 212.001 -88h300l100 -400h-400c-16.667 0 -33.334 0.666992 -50.001 2v-52c133.333 0 200 -50 200 -150s-66.667 -150 -200 -150h-150v100h100c66.667 0 108.334 8.33301 125.001 25c8.66699 8.66699 13 17 13 25c0 8.66699 -6.33301 19.167 -19 31.5
s-69 18.5 -169 18.5v165z" />
    <glyph glyph-name="egrave" unicode="&#xe8;" horiz-adv-x="1059" 
d="M1001 1400v-400h-500v-200h600l-600 -300v-100h500v-400h-900v1300l-100 100h1000zM276 1500l-200 500h400l200 -500h-400z" />
    <glyph glyph-name="eacute" unicode="&#xe9;" horiz-adv-x="1059" 
d="M1001 1400v-400h-500v-200h600l-600 -300v-100h500v-400h-900v1300l-100 100h1000zM676 1500h-400l200 500h400z" />
    <glyph glyph-name="ecircumflex" unicode="&#xea;" horiz-adv-x="1059" 
d="M1001 1400v-400h-500v-200h600l-600 -300v-100h500v-400h-900v1300l-100 100h1000zM776 2000l200 -500h-400l-100 250l-100 -250h-400l200 500h600z" />
    <glyph glyph-name="edieresis" unicode="&#xeb;" horiz-adv-x="1059" 
d="M1001 1400v-400h-500v-200h600l-600 -300v-100h500v-400h-900v1300l-100 100h1000zM426 1500h-400v400h400v-400zM926 1500h-400v400h400v-400z" />
    <glyph glyph-name="igrave" unicode="&#xec;" horiz-adv-x="571" 
d="M503 1400v-1400h-400v1400h400zM103 1500l-200 500h400l200 -500h-400z" />
    <glyph glyph-name="iacute" unicode="&#xed;" horiz-adv-x="573" 
d="M508 1400v-1400h-400v1400h400zM508 1500h-400l200 500h400z" />
    <glyph glyph-name="icircumflex" unicode="&#xee;" horiz-adv-x="659" 
d="M543 1400v-1400h-400v1400h400zM643 2000l200 -500h-400l-100 250l-100 -250h-400l200 500h600z" />
    <glyph glyph-name="idieresis" unicode="&#xef;" horiz-adv-x="580" 
d="M514 1400v-1400h-400v1400h400zM264 1500h-400v400h400v-400zM764 1500h-400v400h400v-400z" />
    <glyph glyph-name="eth" unicode="&#xf0;" horiz-adv-x="1367" 
d="M989 700c0 82.667 -29.333 153.334 -88 212.001s-129.334 88 -212.001 88s-153.334 -29.333 -212.001 -88s-88 -129.334 -88 -212.001s29.333 -153.334 88 -212.001s129.334 -88 212.001 -88s153.334 29.333 212.001 88s88 129.334 88 212.001zM730 1687l489 -527l-1 -1
c114 -129.333 171 -282.333 171 -459c0 -193.333 -68.333 -358.333 -205 -495s-301.667 -205 -495 -205s-358.333 68.333 -495 205s-205 301.667 -205 495s68.333 358.333 205 495c86 86 183.333 145 292 177l-61 67l-146 -117l-174 200l146 116l-92 99l294 243l95 -95
l138 109l193 -187z" />
    <glyph glyph-name="ntilde" unicode="&#xf1;" horiz-adv-x="1475" 
d="M1410 1400v-1500l-900 700v-600h-400v1500l900 -750v550l-100 100h500zM200 1533v400c100 33.333 191.667 50 275 50s158.333 -16.667 225 -50c44.667 -22 93 -33 145 -33c103.333 0 221.666 44.333 354.999 133v-400c-133.333 -88.667 -251.666 -133 -354.999 -133
c-52 0 -100.333 11 -145 33c-66.667 33.333 -141.667 50 -225 50s-175 -16.667 -275 -50z" />
    <glyph glyph-name="ograve" unicode="&#xf2;" horiz-adv-x="1363" 
d="M687 0c-193.333 0 -358.333 68.333 -495 205s-205 301.667 -205 495s68.333 358.333 205 495s301.667 205 495 205s358.333 -68.333 495 -205s205 -301.667 205 -495s-68.333 -358.333 -205 -495s-301.667 -205 -495 -205zM899 488c58.667 58.667 88 129.334 88 212.001
s-29.333 153.334 -88 212.001s-129.334 88 -212.001 88s-153.334 -29.333 -212.001 -88s-88 -129.334 -88 -212.001s29.333 -153.334 88 -212.001s129.334 -88 212.001 -88s153.334 29.333 212.001 88zM550 1500l-200 500h400l200 -500h-400z" />
    <glyph glyph-name="oacute" unicode="&#xf3;" horiz-adv-x="1363" 
d="M687 0c-193.333 0 -358.333 68.333 -495 205s-205 301.667 -205 495s68.333 358.333 205 495s301.667 205 495 205s358.333 -68.333 495 -205s205 -301.667 205 -495s-68.333 -358.333 -205 -495s-301.667 -205 -495 -205zM899 488c58.667 58.667 88 129.334 88 212.001
s-29.333 153.334 -88 212.001s-129.334 88 -212.001 88s-153.334 -29.333 -212.001 -88s-88 -129.334 -88 -212.001s29.333 -153.334 88 -212.001s129.334 -88 212.001 -88s153.334 29.333 212.001 88zM950 1500h-400l200 500h400z" />
    <glyph glyph-name="ocircumflex" unicode="&#xf4;" horiz-adv-x="1363" 
d="M687 0c-193.333 0 -358.333 68.333 -495 205s-205 301.667 -205 495s68.333 358.333 205 495s301.667 205 495 205s358.333 -68.333 495 -205s205 -301.667 205 -495s-68.333 -358.333 -205 -495s-301.667 -205 -495 -205zM899 488c58.667 58.667 88 129.334 88 212.001
s-29.333 153.334 -88 212.001s-129.334 88 -212.001 88s-153.334 -29.333 -212.001 -88s-88 -129.334 -88 -212.001s29.333 -153.334 88 -212.001s129.334 -88 212.001 -88s153.334 29.333 212.001 88zM1050 2000l200 -500h-400l-100 250l-100 -250h-400l200 500h600z" />
    <glyph glyph-name="otilde" unicode="&#xf5;" horiz-adv-x="1363" 
d="M687 0c-193.333 0 -358.333 68.333 -495 205s-205 301.667 -205 495s68.333 358.333 205 495s301.667 205 495 205s358.333 -68.333 495 -205s205 -301.667 205 -495s-68.333 -358.333 -205 -495s-301.667 -205 -495 -205zM899 488c58.667 58.667 88 129.334 88 212.001
s-29.333 153.334 -88 212.001s-129.334 88 -212.001 88s-153.334 -29.333 -212.001 -88s-88 -129.334 -88 -212.001s29.333 -153.334 88 -212.001s129.334 -88 212.001 -88s153.334 29.333 212.001 88zM250 1533v400c100 33.333 191.667 50 275 50s158.333 -16.667 225 -50
c44.667 -22 93 -33 145 -33c103.333 0 221.666 44.333 354.999 133v-400c-133.333 -88.667 -251.666 -133 -354.999 -133c-52 0 -100.333 11 -145 33c-66.667 33.333 -141.667 50 -225 50s-175 -16.667 -275 -50z" />
    <glyph glyph-name="odieresis" unicode="&#xf6;" horiz-adv-x="1363" 
d="M687 0c-193.333 0 -358.333 68.333 -495 205s-205 301.667 -205 495s68.333 358.333 205 495s301.667 205 495 205s358.333 -68.333 495 -205s205 -301.667 205 -495s-68.333 -358.333 -205 -495s-301.667 -205 -495 -205zM899 488c58.667 58.667 88 129.334 88 212.001
s-29.333 153.334 -88 212.001s-129.334 88 -212.001 88s-153.334 -29.333 -212.001 -88s-88 -129.334 -88 -212.001s29.333 -153.334 88 -212.001s129.334 -88 212.001 -88s153.334 29.333 212.001 88zM700 1500h-400v400h400v-400zM1200 1500h-400v400h400v-400z" />
    <glyph glyph-name="divide" unicode="&#xf7;" horiz-adv-x="1100" 
d="M1050 900v-400h-1000v400h1000zM750 1000h-400v400h400v-400zM750 0h-400v400h400v-400z" />
    <glyph glyph-name="oslash" unicode="&#xf8;" horiz-adv-x="1404" 
d="M645 996c-60.667 -10.667 -113.667 -38.666 -159 -83.999c-58.667 -58.667 -88 -129.334 -88 -212.001c0 -48.667 10 -93 30 -133zM761 406.001c56 11.333 105.667 38.666 149 81.999c58.667 58.667 88 129.334 88 212.001c0 46 -9 88.333 -27 127zM1167 1220l26 -25
c136.667 -136.667 205 -301.667 205 -495s-68.333 -358.333 -205 -495s-301.667 -205 -495 -205c-46 0 -90.667 4 -134 12l-105 -212h-418l191 378c-10 8.66699 -19.667 17.667 -29 27c-136.667 136.667 -205 301.667 -205 495s68.333 358.333 205 495s301.667 205 495 205
c50 0 98 -4.66699 144 -14l108 214h406z" />
    <glyph glyph-name="ugrave" unicode="&#xf9;" horiz-adv-x="1320" 
d="M467 1400v-700c0 -200 66.667 -300 200 -300s200 100 200 300v700h400v-700c0 -466.667 -200 -700 -600 -700s-600 233.333 -600 700v600l-100 100h500zM450 1500l-200 500h400l200 -500h-400z" />
    <glyph glyph-name="uacute" unicode="&#xfa;" horiz-adv-x="1320" 
d="M467 1400v-700c0 -200 66.667 -300 200 -300s200 100 200 300v700h400v-700c0 -466.667 -200 -700 -600 -700s-600 233.333 -600 700v600l-100 100h500zM850 1500h-400l200 500h400z" />
    <glyph glyph-name="ucircumflex" unicode="&#xfb;" horiz-adv-x="1320" 
d="M467 1400v-700c0 -200 66.667 -300 200 -300s200 100 200 300v700h400v-700c0 -466.667 -200 -700 -600 -700s-600 233.333 -600 700v600l-100 100h500zM950 2000l200 -500h-400l-100 250l-100 -250h-400l200 500h600z" />
    <glyph glyph-name="udieresis" unicode="&#xfc;" horiz-adv-x="1320" 
d="M467 1400v-700c0 -200 66.667 -300 200 -300s200 100 200 300v700h400v-700c0 -466.667 -200 -700 -600 -700s-600 233.333 -600 700v600l-100 100h500zM600 1500h-400v400h400v-400zM1100 1500h-400v400h400v-400z" />
    <glyph glyph-name="yacute" unicode="&#xfd;" horiz-adv-x="1203" 
d="M1353 1400l-943 -1400h-457l476 700l-476 700h453l244 -364l190 277l-87 87h600zM950 1500h-400l200 500h400z" />
    <glyph glyph-name="thorn" unicode="&#xfe;" horiz-adv-x="1286" 
d="M508 1350h300c333.333 0 500 -183.333 500 -550s-166.667 -550 -500 -550h-300v-250h-400v1550h400v-200zM508 650h300c66.667 0 100 50 100 150s-33.333 150 -100 150h-300v-300z" />
    <glyph glyph-name="ydieresis" unicode="&#xff;" horiz-adv-x="1203" 
d="M1353 1400l-943 -1400h-457l476 700l-476 700h453l244 -364l190 277l-87 87h600zM700 1500h-400v400h400v-400zM1200 1500h-400v400h400v-400z" />
    <glyph glyph-name="OE" unicode="&#x152;" horiz-adv-x="2038" 
d="M986 700c0 82.667 -29.333 153.334 -88 212.001s-129.334 88 -212.001 88s-153.334 -29.333 -212.001 -88s-88 -129.334 -88 -212.001s29.333 -153.334 88 -212.001s129.334 -88 212.001 -88s153.334 29.333 212.001 88s88 129.334 88 212.001zM1086 124
c-116 -82.667 -249.333 -124 -400 -124c-193.333 -0 -358.333 68.333 -495 205s-205 301.667 -205 495s68.333 358.333 205 495s301.667 205 495 205c150.667 0 284 -41.333 400 -124v24l-100 100h1000v-400h-500v-200h600l-600 -300v-100h500v-400h-900v124z" />
    <glyph glyph-name="oe" unicode="&#x153;" horiz-adv-x="2040" 
d="M989 700c0 82.667 -29.333 153.334 -88 212.001s-129.334 88 -212.001 88s-153.334 -29.333 -212.001 -88s-88 -129.334 -88 -212.001s29.333 -153.334 88 -212.001s129.334 -88 212.001 -88s153.334 29.333 212.001 88s88 129.334 88 212.001zM1089 124
c-116 -82.667 -249.333 -124 -400 -124c-193.333 -0 -358.333 68.333 -495 205s-205 301.667 -205 495s68.333 358.333 205 495s301.667 205 495 205c150.667 0 284 -41.333 400 -124v24l-100 100h1000v-400h-500v-200h600l-600 -300v-100h500v-400h-900v124z" />
    <glyph glyph-name="uni0276" unicode="&#x276;" horiz-adv-x="2040" 
d="M989 700c0 82.667 -29.333 153.334 -88 212.001s-129.334 88 -212.001 88s-153.334 -29.333 -212.001 -88s-88 -129.334 -88 -212.001s29.333 -153.334 88 -212.001s129.334 -88 212.001 -88s153.334 29.333 212.001 88s88 129.334 88 212.001zM1089 124
c-116 -82.667 -249.333 -124 -400 -124c-193.333 -0 -358.333 68.333 -495 205s-205 301.667 -205 495s68.333 358.333 205 495s301.667 205 495 205c150.667 0 284 -41.333 400 -124v24l-100 100h1000v-400h-500v-200h600l-600 -300v-100h500v-400h-900v124z" />
    <glyph glyph-name="circumflex" unicode="&#x2c6;" horiz-adv-x="1100" 
d="M850 2000l200 -500h-400l-100 250l-100 -250h-400l200 500h600z" />
    <glyph glyph-name="caron" unicode="&#x2c7;" horiz-adv-x="1100" 
d="M550 1750l100 250h400l-200 -500h-600l-200 500h400z" />
    <glyph glyph-name="uni02C9" unicode="&#x2c9;" horiz-adv-x="900" 
d="M850 1900v-400h-800v400h800z" />
    <glyph glyph-name="dotaccent" unicode="&#x2d9;" horiz-adv-x="500" 
d="M450 1500h-400v400h400v-400z" />
    <glyph glyph-name="tilde" unicode="&#x2dc;" horiz-adv-x="1100" 
d="M50 1533v400c100 33.333 191.667 50 275 50s158.333 -16.667 225 -50c44.667 -22 93 -33 145 -33c103.333 0 221.666 44.333 354.999 133v-400c-133.333 -88.667 -251.666 -133 -354.999 -133c-52 0 -100.333 11 -145 33c-66.667 33.333 -141.667 50 -225 50
s-175 -16.667 -275 -50z" />
    <glyph glyph-name="hungarumlaut" unicode="&#x2dd;" horiz-adv-x="1246" 
d="M450 900h-400l200 500h400zM996 900h-400l200 500h400z" />
    <glyph glyph-name="gravecomb" unicode="&#x300;" horiz-adv-x="700" 
d="M250 1500l-200 500h400l200 -500h-400z" />
    <glyph glyph-name="acutecomb" unicode="&#x301;" horiz-adv-x="700" 
d="M450 1500h-400l200 500h400z" />
    <glyph glyph-name="uni0302" unicode="&#x302;" horiz-adv-x="1100" 
d="M850 2000l200 -500h-400l-100 250l-100 -250h-400l200 500h600z" />
    <glyph glyph-name="tildecomb" unicode="&#x303;" horiz-adv-x="1100" 
d="M50 1533v400c100 33.333 191.667 50 275 50s158.333 -16.667 225 -50c44.667 -22 93 -33 145 -33c103.333 0 221.666 44.333 354.999 133v-400c-133.333 -88.667 -251.666 -133 -354.999 -133c-52 0 -100.333 11 -145 33c-66.667 33.333 -141.667 50 -225 50
s-175 -16.667 -275 -50z" />
    <glyph glyph-name="uni0304" unicode="&#x304;" horiz-adv-x="900" 
d="M850 1900v-400h-800v400h800z" />
    <glyph glyph-name="uni0305" unicode="&#x305;" horiz-adv-x="900" 
d="M850 1900v-400h-800v400h800z" />
    <glyph glyph-name="uni0306" unicode="&#x306;" horiz-adv-x="900" 
d="M800 1900l49.9961 -400c-133.333 -33.333 -266.666 -50 -399.999 -50s-266.666 16.667 -399.999 50l50 400c116.667 -33.333 233.334 -50 350.001 -50s233.334 16.667 350.001 50z" />
    <glyph glyph-name="uni0307" unicode="&#x307;" horiz-adv-x="500" 
d="M450 1500h-400v400h400v-400z" />
    <glyph glyph-name="uni0308" unicode="&#x308;" horiz-adv-x="1000" 
d="M450 1500h-400v400h400v-400zM950 1500h-400v400h400v-400z" />
    <glyph glyph-name="hookabovecomb" unicode="&#x309;" horiz-adv-x="528" 
d="M350 1800c0 66.667 -33.333 100 -100 100s-100 -50 -100 -150h-100c0 166.667 75 250 225 250c135.333 0 203 -54 203 -162c0 -12 -4.66699 -54.667 -14 -128s-64 -143.333 -164 -210h-100c100 133.333 150 233.333 150 300z" />
    <glyph glyph-name="uni030A" unicode="&#x30a;" horiz-adv-x="550" 
d="M275 1500c-62 0 -115 21 -159 63s-66 92.333 -66 151c0 59.333 22 110 66 152s97 63 159 63s115 -21 159 -63s66 -92.667 66 -152c0 -58.667 -22 -109 -66 -151s-97 -63 -159 -63zM275 1600c34.667 0 64.167 12.167 88.5 36.5s36.5 53.833 36.5 88.5
s-12.167 64.167 -36.5 88.5s-53.833 36.5 -88.5 36.5s-64.167 -12.167 -88.5 -36.5s-36.5 -53.833 -36.5 -88.5s12.167 -64.167 36.5 -88.5s53.833 -36.5 88.5 -36.5z" />
    <glyph glyph-name="uni030B" unicode="&#x30b;" horiz-adv-x="1246" 
d="M450 1500h-400l200 500h400zM996 1500h-400l200 500h400z" />
    <glyph glyph-name="uni030C" unicode="&#x30c;" horiz-adv-x="1100" 
d="M550 1750l100 250h400l-200 -500h-600l-200 500h400z" />
    <glyph glyph-name="uni0327" unicode="&#x327;" horiz-adv-x="450" 
d="M100 -150l-0.000976562 200h100v-100c133.333 0 200 -50 200 -150s-66.667 -150 -200 -150h-150v100h100c66.667 0 108.334 8.33301 125.001 25c8.66699 8.66699 13 17 13 25c0 8.66699 -6.33301 19.167 -19 31.5s-69 18.5 -169 18.5z" />
    <glyph glyph-name="uni0609" unicode="&#x609;" horiz-adv-x="1900" 
d="M1350 1400l-849 -1400h-451l853 1400h447zM450 900h-400v400h400v-400zM1350 100h-400v400h400v-400zM1850 100h-400v400h400v-400z" />
    <glyph glyph-name="endash" unicode="&#x2013;" horiz-adv-x="1100" 
d="M1050 900v-400h-1000v400h1000z" />
    <glyph glyph-name="emdash" unicode="&#x2014;" horiz-adv-x="1999" 
d="M1949 900v-400h-1899v400h1899z" />
    <glyph glyph-name="quoteleft" unicode="&#x2018;" horiz-adv-x="500" 
d="M450 1400l-50 -600h-300l-50 600h400z" />
    <glyph glyph-name="quoteright" unicode="&#x2019;" horiz-adv-x="500" 
d="M450 1400l-50 -600h-300l-50 600h400z" />
    <glyph glyph-name="quotesinglbase" unicode="&#x201a;" horiz-adv-x="500" 
d="M450 200v-600h-400v600h400z" />
    <glyph glyph-name="quotedblleft" unicode="&#x201c;" horiz-adv-x="1000" 
d="M450 1400l-50 -600h-300l-50 600h400zM950 1400l-50 -600h-300l-50 600h400z" />
    <glyph glyph-name="quotedblright" unicode="&#x201d;" horiz-adv-x="1000" 
d="M450 1400l-50 -600h-300l-50 600h400zM950 1400l-50 -600h-300l-50 600h400z" />
    <glyph glyph-name="quotedblbase" unicode="&#x201e;" horiz-adv-x="1000" 
d="M450 200v-600h-400v600h400zM950 200v-600h-400v600h400z" />
    <glyph glyph-name="bullet" unicode="&#x2022;" horiz-adv-x="500" 
d="M250 500c-55.333 0 -102.5 19.5 -141.5 58.5s-58.5 86.167 -58.5 141.5s19.5 102.5 58.5 141.5s86.167 58.5 141.5 58.5s102.5 -19.5 141.5 -58.5s58.5 -86.167 58.5 -141.5s-19.5 -102.5 -58.5 -141.5s-86.167 -58.5 -141.5 -58.5z" />
    <glyph glyph-name="ellipsis" unicode="&#x2026;" horiz-adv-x="1700" 
d="M450 0h-400v400h400v-400zM1050 0h-400v400h400v-400zM1650 0h-400v400h400v-400z" />
    <glyph glyph-name="guilsinglleft" unicode="&#x2039;" horiz-adv-x="1200" 
d="M50 900l1100 500v-400l-700 -300l700 -300v-400l-1100 500v400z" />
    <glyph glyph-name="guilsinglright" unicode="&#x203a;" horiz-adv-x="1200" 
d="M1150 500l-1100 -500v400l700 300l-700 300v400l1100 -500v-400z" />
    <glyph glyph-name="Euro" unicode="&#x20ac;" horiz-adv-x="1367" 
d="M533 500c3.33301 -4 7.00098 -8 11.001 -12c58.667 -58.667 129.334 -88 212.001 -88s153.334 29.333 212.001 88c28 28 49.333 59.333 64 94l369 -158c-34 -80 -84 -153 -150 -219c-136.667 -136.667 -301.667 -205 -495 -205s-358.333 68.333 -495 205
c-86.667 86.667 -146 185 -178 295h-77l-50 400h127c32 110 91.333 208.333 178 295c136.667 136.667 301.667 205 495 205s358.333 -68.333 495 -205c66 -66 116.333 -138.667 151 -218l-369 -159c-14.667 34 -36.334 65.333 -65.001 94
c-58.667 58.667 -129.334 88 -212.001 88s-153.334 -29.333 -212.001 -88c-4 -4 -7.66699 -8 -11 -12h173l50 -400h-223z" />
    <glyph glyph-name="trademark" unicode="&#x2122;" horiz-adv-x="1174" 
d="M353 1258v-358h-143v358h-160v143h465v-143h-162zM1124 1401v-501h-143v239l-72 -239h-143l-71 238v-238h-143v501h178l108 -286l107 286h179z" />
    <glyph glyph-name="minus" unicode="&#x2212;" horiz-adv-x="1100" 
d="M1050 900v-400h-1000v400h1000z" />
    <glyph glyph-name="uni0009" horiz-adv-x="508" 
 />
    </font>
</defs>
</svg>
